<?xml version="1.0" encoding="utf-8"?>
<!DOCTYPE svg PUBLIC "-//W3C//DTD SVG 1.1//EN" "http://www.w3.org/Graphics/SVG/1.1/DTD/svg11.dtd">
<svg xmlns="http://www.w3.org/2000/svg" xmlns:xlink="http://www.w3.org/1999/xlink">
<svg:style xmlns:svg="http://www.w3.org/2000/svg" type="text/css">
	.i {display:none;}
	.i:target {display:block;}
</svg:style>
<svg:svg xmlns:svg="http://www.w3.org/2000/svg" class="i" id="logo" width="64px" height="64px" viewBox="0 0 64 64">
	<path fill="white" clip-rule="evenodd" d="M25.53,41.26c0,0,2.81,5.94,6.6,5.9c1.87-0.02,3.97-1.49,6.091-5.82   c2.579-5.279,1.35-10.55-1.041-14.97c-3.55-6.55-9.68-11.21-9.68-11.21s3.05,3.78,1.93,12.54c-0.07,0.57-0.17,1.17-0.28,1.78   c-1.81,10.03-3.54,0-3.54,0C22.81,34.18,25.53,41.26,25.53,41.26z"/>
	<path fill="white" clip-rule="evenodd" d="M9.51,19.15v25.7L32,57.71l22.49-12.86v-25.7L32,6.29L9.51,19.15z M32,0l28,16v32   L32,64L4,48V16L32,0z"/>
</svg:svg>
<svg:svg xmlns:svg="http://www.w3.org/2000/svg" class="i" id="menu" width="64px" height="64px" viewBox="0 0 64 64">
	<path fill="white" clip-rule="evenodd" d="M9.51,19.15v25.7L32,57.71l22.49-12.86v-25.7L32,6.29L9.51,19.15z M32,0l28,16v32   L32,64L4,48V16L32,0z"/>
	<g><rect x="19" y="23" fill="white" clip-rule="evenodd" width="26" height="4"/><rect x="19" y="31" fill="white" clip-rule="evenodd" width="26" height="4"/><rect x="19" y="39" fill="white" clip-rule="evenodd" width="26" height="4"/></g>
</svg:svg>
</svg>
